<svg width="256" height="204" viewBox="0 0 256 204" fill="none" xmlns="http://www.w3.org/2000/svg">
<path d="M247.811 203.951H8.17455C6.04349 203.951 3.99972 203.105 2.49284 201.598C0.985953 200.091 0.139397 198.047 0.139397 195.916C87.0077 185.82 172.243 185.82 255.847 195.916C255.847 198.047 255 200.091 253.493 201.598C251.986 203.105 249.942 203.951 247.811 203.951Z" fill="#2F2E41"/>
<path d="M255.847 196.39L0.139397 195.917L29.775 146.052L29.9168 145.816V35.9183C29.9166 34.5844 30.1793 33.2635 30.6897 32.0311C31.2001 30.7987 31.9483 29.6789 32.8915 28.7357C33.8348 27.7925 34.9545 27.0443 36.1869 26.5339C37.4193 26.0235 38.7402 25.7608 40.0741 25.7609H214.494C215.828 25.7608 217.149 26.0235 218.381 26.5339C219.613 27.0443 220.733 27.7925 221.676 28.7357C222.62 29.6789 223.368 30.7987 223.878 32.0311C224.389 33.2635 224.651 34.5844 224.651 35.9183V146.572L255.847 196.39Z" fill="#3F3D56"/>
<path d="M39.8426 32.8506C38.9654 32.8516 38.1244 33.2005 37.5041 33.8207C36.8839 34.441 36.535 35.282 36.534 36.1592V136.362C36.535 137.24 36.8839 138.08 37.5042 138.701C38.1244 139.321 38.9654 139.67 39.8426 139.671H216.143C217.021 139.67 217.862 139.321 218.482 138.701C219.102 138.08 219.451 137.24 219.452 136.362V36.1592C219.451 35.282 219.102 34.441 218.482 33.8208C217.862 33.2005 217.021 32.8516 216.143 32.8506H39.8426Z" fill="white"/>
<path d="M40.5813 152.904C40.3102 152.905 40.0449 152.983 39.8167 153.129C39.5884 153.275 39.4067 153.484 39.293 153.73L30.1614 173.581C30.0619 173.797 30.0185 174.035 30.0349 174.272C30.0514 174.509 30.1272 174.739 30.2555 174.939C30.3838 175.139 30.5604 175.304 30.769 175.418C30.9776 175.532 31.2116 175.592 31.4494 175.592H223.483C223.725 175.592 223.962 175.53 224.173 175.412C224.385 175.295 224.562 175.125 224.689 174.919C224.816 174.714 224.889 174.479 224.899 174.238C224.91 173.996 224.859 173.756 224.751 173.54L214.825 153.688C214.708 153.452 214.527 153.254 214.303 153.115C214.079 152.977 213.821 152.904 213.557 152.904H40.5813Z" fill="#2F2E41"/>
<path d="M127.284 31.1929C128.459 31.1929 129.411 30.2406 129.411 29.0659C129.411 27.8913 128.459 26.939 127.284 26.939C126.109 26.939 125.157 27.8913 125.157 29.0659C125.157 30.2406 126.109 31.1929 127.284 31.1929Z" fill="white"/>
<path d="M108.409 179.373C108.097 179.373 107.794 179.476 107.547 179.666C107.299 179.855 107.121 180.121 107.04 180.422L104.749 188.93C104.692 189.14 104.685 189.36 104.727 189.574C104.769 189.787 104.86 189.988 104.993 190.161C105.125 190.334 105.295 190.474 105.491 190.57C105.686 190.667 105.901 190.717 106.118 190.717H149.68C149.906 190.717 150.129 190.663 150.33 190.559C150.531 190.455 150.704 190.305 150.835 190.121C150.966 189.937 151.051 189.724 151.083 189.5C151.115 189.277 151.093 189.048 151.019 188.835L148.075 180.327C147.978 180.048 147.797 179.807 147.557 179.636C147.317 179.465 147.029 179.373 146.735 179.373H108.409Z" fill="#2F2E41"/>
<path d="M224.651 144.162V146.052H29.7749L29.9215 145.816V144.162H224.651Z" fill="#2F2E41"/>
<path d="M219.216 66.1719C237.489 66.1719 252.302 51.3588 252.302 33.086C252.302 14.8131 237.489 0 219.216 0C200.943 0 186.13 14.8131 186.13 33.086C186.13 51.3588 200.943 66.1719 219.216 66.1719Z" fill="#2271EA"/>
<path d="M232.923 47.5005H205.509C205.007 47.5 204.527 47.3007 204.172 46.9462C203.818 46.5918 203.619 46.1112 203.618 45.6099V29.0669C203.619 28.5657 203.818 28.0851 204.172 27.7306C204.527 27.3762 205.007 27.1768 205.509 27.1763H232.923C233.424 27.1768 233.905 27.3762 234.259 27.7306C234.613 28.0851 234.813 28.5657 234.813 29.0669V45.6099C234.813 46.1112 234.613 46.5918 234.259 46.9462C233.905 47.3007 233.424 47.5 232.923 47.5005ZM205.509 29.0669V45.6099H232.924L232.923 29.0669L205.509 29.0669Z" fill="white"/>
<path d="M227.723 29.0676H210.708V21.5051C210.708 16.0276 214.286 12.052 219.216 12.052C224.145 12.052 227.723 16.0276 227.723 21.5051L227.723 29.0676ZM212.598 27.177H225.833V21.5051C225.833 17.0525 223.112 13.9426 219.216 13.9426C215.319 13.9426 212.598 17.0525 212.598 21.5051L212.598 27.177Z" fill="white"/>
<path d="M219.216 38.7591C220.26 38.7591 221.106 37.9127 221.106 36.8685C221.106 35.8244 220.26 34.9779 219.216 34.9779C218.172 34.9779 217.325 35.8244 217.325 36.8685C217.325 37.9127 218.172 38.7591 219.216 38.7591Z" fill="white"/>
<path d="M197.496 106.104H61.2444C60.5754 106.103 59.9341 105.837 59.4611 105.364C58.9881 104.891 58.722 104.25 58.7212 103.581V69.7827C58.722 69.1137 58.9881 68.4724 59.4611 67.9994C59.9341 67.5264 60.5754 67.2603 61.2444 67.2595H197.496C198.165 67.2603 198.806 67.5264 199.279 67.9994C199.752 68.4724 200.018 69.1137 200.019 69.7827V103.581C200.018 104.25 199.752 104.891 199.279 105.364C198.806 105.837 198.165 106.103 197.496 106.104V106.104ZM61.2444 68.2688C60.843 68.2692 60.4582 68.4289 60.1744 68.7127C59.8906 68.9965 59.7309 69.3813 59.7305 69.7827V103.581C59.7309 103.982 59.8906 104.367 60.1744 104.651C60.4582 104.935 60.843 105.094 61.2444 105.095H197.496C197.897 105.094 198.282 104.935 198.566 104.651C198.85 104.367 199.01 103.982 199.01 103.581V69.7827C199.01 69.3813 198.85 68.9965 198.566 68.7127C198.282 68.4288 197.897 68.2692 197.496 68.2688L61.2444 68.2688Z" fill="#E6E6E6"/>
<path d="M102.898 92.0669C102.444 92.0669 102.008 92.2474 101.687 92.5686C101.366 92.8899 101.185 93.3256 101.185 93.7799C101.185 94.2343 101.366 94.67 101.687 94.9912C102.008 95.3125 102.444 95.493 102.898 95.493H137.648C138.102 95.493 138.538 95.3125 138.859 94.9912C139.18 94.67 139.361 94.2343 139.361 93.7799C139.361 93.3256 139.18 92.8899 138.859 92.5686C138.538 92.2474 138.102 92.0669 137.648 92.0669H102.898Z" fill="#E6E6E6"/>
<path d="M105.382 77.8946C105.752 77.8946 106.08 77.9807 106.366 78.1531C106.651 78.3226 106.868 78.5514 107.018 78.8396C107.168 79.1277 107.243 79.447 107.243 79.7973C107.243 80.3425 107.072 80.7931 106.73 81.1491C106.391 81.5051 105.942 81.683 105.382 81.683H103.992V83.9375H102.98V77.8946H105.382ZM105.221 80.8186C105.555 80.8186 105.81 80.7253 105.988 80.5389C106.166 80.3524 106.255 80.101 106.255 79.7846C106.255 79.4766 106.165 79.228 105.984 79.0387C105.806 78.8466 105.552 78.7506 105.221 78.7506H103.992V80.8186H105.221ZM111.879 81.7339L111.866 81.9797H108.624C108.641 82.3865 108.765 82.6973 108.997 82.912C109.229 83.1267 109.516 83.234 109.857 83.234C110.095 83.234 110.305 83.1761 110.489 83.0603C110.675 82.9445 110.817 82.7792 110.913 82.5645L111.802 82.717C111.656 83.1267 111.41 83.4459 111.065 83.6748C110.72 83.9036 110.321 84.018 109.866 84.018C109.202 84.018 108.669 83.8217 108.268 83.429C107.867 83.0363 107.666 82.4953 107.666 81.8059C107.666 81.1194 107.867 80.5784 108.268 80.1829C108.669 79.7874 109.192 79.5896 109.836 79.5896C110.449 79.5896 110.942 79.7719 111.315 80.1363C111.688 80.4979 111.876 81.0304 111.879 81.7339ZM109.84 80.3143C109.532 80.3143 109.275 80.392 109.069 80.5473C108.866 80.6999 108.732 80.9344 108.667 81.2508H110.9C110.863 80.9429 110.75 80.7098 110.561 80.5516C110.372 80.3934 110.131 80.3143 109.84 80.3143ZM113.858 80.3906C113.965 80.173 114.145 79.9922 114.396 79.8481C114.65 79.704 114.928 79.6306 115.231 79.6278V80.5177C114.779 80.5177 114.443 80.6137 114.222 80.8058C114.005 80.9951 113.896 81.3144 113.896 81.7636V83.9375H112.917V79.6744H113.858V80.3906ZM120.727 79.5939C121.165 79.5939 121.514 79.7125 121.774 79.9498C122.034 80.1843 122.164 80.5177 122.164 80.9499V83.9375H121.185V81.2211C121.185 80.9471 121.114 80.7409 120.973 80.6024C120.832 80.4612 120.654 80.3906 120.439 80.3906C120.187 80.3906 119.983 80.4753 119.824 80.6448C119.669 80.8115 119.591 81.07 119.591 81.4203V83.9375H118.6V81.2423C118.6 80.9626 118.528 80.7508 118.384 80.6067C118.242 80.4626 118.062 80.3906 117.841 80.3906C117.59 80.3906 117.385 80.4781 117.227 80.6533C117.069 80.8256 116.989 81.0954 116.989 81.4627V83.9375H116.019V79.6744H116.989V80.1999C117.269 79.7959 117.67 79.5939 118.193 79.5939C118.484 79.5939 118.738 79.6518 118.956 79.7676C119.173 79.8806 119.337 80.0445 119.447 80.2592C119.73 79.8156 120.156 79.5939 120.727 79.5939ZM123.969 78.8607C123.805 78.8607 123.664 78.8028 123.545 78.687C123.426 78.5683 123.367 78.4271 123.367 78.2632C123.367 78.0994 123.425 77.9595 123.541 77.8437C123.66 77.725 123.802 77.6657 123.969 77.6657C124.13 77.6657 124.27 77.725 124.388 77.8437C124.507 77.9595 124.566 78.0994 124.566 78.2632C124.566 78.4271 124.507 78.5683 124.388 78.687C124.27 78.8028 124.13 78.8607 123.969 78.8607ZM123.469 83.9375V79.6744H124.448V83.9375H123.469ZM127.257 84.018C126.78 84.018 126.382 83.9177 126.062 83.7171C125.743 83.5137 125.548 83.2199 125.477 82.8357L126.304 82.6026C126.36 82.8399 126.472 83.0193 126.639 83.1408C126.805 83.2595 127.012 83.3188 127.257 83.3188C127.461 83.3188 127.633 83.2764 127.774 83.1917C127.916 83.1069 127.985 82.9699 127.982 82.7806C127.982 82.7015 127.964 82.6323 127.927 82.573C127.89 82.5108 127.846 82.46 127.796 82.4204C127.745 82.378 127.671 82.3371 127.575 82.2975C127.482 82.258 127.396 82.2269 127.317 82.2043C127.24 82.1817 127.136 82.1506 127.003 82.1111C126.87 82.0715 126.76 82.0376 126.673 82.0094C126.511 81.9585 126.376 81.9062 126.266 81.8526C126.156 81.7989 126.044 81.7283 125.931 81.6407C125.818 81.5531 125.732 81.4429 125.672 81.3101C125.616 81.1745 125.588 81.0177 125.588 80.8397C125.588 80.5629 125.66 80.3298 125.804 80.1405C125.948 79.9512 126.137 79.8142 126.372 79.7295C126.606 79.6419 126.875 79.5981 127.177 79.5981C127.603 79.5981 127.962 79.6899 128.253 79.8736C128.547 80.0572 128.729 80.3383 128.8 80.7169L128.029 80.8991C127.975 80.6844 127.872 80.5262 127.719 80.4245C127.57 80.3228 127.39 80.2719 127.181 80.2719C126.986 80.2719 126.821 80.3129 126.685 80.3948C126.552 80.4739 126.486 80.5954 126.486 80.7592C126.486 80.8044 126.49 80.8468 126.499 80.8864C126.51 80.9231 126.53 80.957 126.558 80.9881C126.586 81.0191 126.612 81.0474 126.634 81.0728C126.657 81.0954 126.694 81.1194 126.745 81.1449C126.795 81.1703 126.836 81.1901 126.867 81.2042C126.899 81.2183 126.949 81.2367 127.02 81.2593C127.091 81.2791 127.143 81.2946 127.177 81.3059C127.211 81.3144 127.269 81.3299 127.351 81.3525C127.435 81.3723 127.495 81.3864 127.529 81.3949C127.687 81.4373 127.821 81.4768 127.931 81.5135C128.044 81.5503 128.167 81.6054 128.3 81.6788C128.435 81.7494 128.544 81.8285 128.626 81.9161C128.711 82.0037 128.781 82.1181 128.838 82.2594C128.894 82.3978 128.923 82.5532 128.923 82.7255C128.923 82.9544 128.878 83.1549 128.787 83.3273C128.697 83.4968 128.572 83.631 128.414 83.7299C128.259 83.8259 128.084 83.8979 127.889 83.946C127.697 83.994 127.486 84.018 127.257 84.018ZM131.368 84.018C130.89 84.018 130.492 83.9177 130.173 83.7171C129.854 83.5137 129.659 83.2199 129.588 82.8357L130.414 82.6026C130.471 82.8399 130.582 83.0193 130.749 83.1408C130.916 83.2595 131.122 83.3188 131.368 83.3188C131.571 83.3188 131.744 83.2764 131.885 83.1917C132.026 83.1069 132.095 82.9699 132.093 82.7806C132.093 82.7015 132.074 82.6323 132.037 82.573C132.001 82.5108 131.957 82.46 131.906 82.4204C131.855 82.378 131.782 82.3371 131.686 82.2975C131.592 82.258 131.506 82.2269 131.427 82.2043C131.351 82.1817 131.246 82.1506 131.114 82.1111C130.981 82.0715 130.871 82.0376 130.783 82.0094C130.622 81.9585 130.486 81.9062 130.376 81.8526C130.266 81.7989 130.154 81.7283 130.041 81.6407C129.928 81.5531 129.842 81.4429 129.783 81.3101C129.726 81.1745 129.698 81.0177 129.698 80.8397C129.698 80.5629 129.77 80.3298 129.914 80.1405C130.058 79.9512 130.248 79.8142 130.482 79.7295C130.717 79.6419 130.985 79.5981 131.287 79.5981C131.714 79.5981 132.073 79.6899 132.364 79.8736C132.658 80.0572 132.84 80.3383 132.91 80.7169L132.139 80.8991C132.085 80.6844 131.982 80.5262 131.83 80.4245C131.68 80.3228 131.501 80.2719 131.292 80.2719C131.097 80.2719 130.931 80.3129 130.796 80.3948C130.663 80.4739 130.597 80.5954 130.597 80.7592C130.597 80.8044 130.601 80.8468 130.609 80.8864C130.621 80.9231 130.64 80.957 130.669 80.9881C130.697 81.0191 130.722 81.0474 130.745 81.0728C130.768 81.0954 130.804 81.1194 130.855 81.1449C130.906 81.1703 130.947 81.1901 130.978 81.2042C131.009 81.2183 131.06 81.2367 131.131 81.2593C131.201 81.2791 131.253 81.2946 131.287 81.3059C131.321 81.3144 131.379 81.3299 131.461 81.3525C131.546 81.3723 131.605 81.3864 131.639 81.3949C131.797 81.4373 131.931 81.4768 132.042 81.5135C132.155 81.5503 132.278 81.6054 132.41 81.6788C132.546 81.7494 132.655 81.8285 132.737 81.9161C132.821 82.0037 132.892 82.1181 132.949 82.2594C133.005 82.3978 133.033 82.5532 133.033 82.7255C133.033 82.9544 132.988 83.1549 132.898 83.3273C132.807 83.4968 132.683 83.631 132.525 83.7299C132.369 83.8259 132.194 83.8979 131.999 83.946C131.807 83.994 131.597 84.018 131.368 84.018ZM134.555 78.8607C134.391 78.8607 134.25 78.8028 134.131 78.687C134.012 78.5683 133.953 78.4271 133.953 78.2632C133.953 78.0994 134.011 77.9595 134.127 77.8437C134.245 77.725 134.388 77.6657 134.555 77.6657C134.716 77.6657 134.856 77.725 134.974 77.8437C135.093 77.9595 135.152 78.0994 135.152 78.2632C135.152 78.4271 135.093 78.5683 134.974 78.687C134.856 78.8028 134.716 78.8607 134.555 78.8607ZM134.055 83.9375V79.6744H135.033V83.9375H134.055ZM138.309 84.018C137.651 84.018 137.113 83.8188 136.695 83.4205C136.277 83.0193 136.067 82.4797 136.067 81.8017C136.067 81.1293 136.277 80.594 136.695 80.1956C137.113 79.7945 137.651 79.5939 138.309 79.5939C138.97 79.5939 139.51 79.793 139.928 80.1914C140.346 80.5897 140.555 81.1265 140.555 81.8017C140.555 82.4797 140.346 83.0193 139.928 83.4205C139.51 83.8188 138.97 84.018 138.309 84.018ZM138.301 83.2298C138.676 83.2298 138.984 83.0984 139.225 82.8357C139.465 82.573 139.585 82.2283 139.585 81.8017C139.585 81.3751 139.465 81.0319 139.225 80.7719C138.984 80.5092 138.676 80.3778 138.301 80.3778C137.933 80.3778 137.631 80.5092 137.394 80.7719C137.157 81.0319 137.038 81.3751 137.038 81.8017C137.038 82.2283 137.155 82.573 137.39 82.8357C137.627 83.0984 137.931 83.2298 138.301 83.2298ZM143.856 79.5939C144.337 79.5939 144.712 79.7224 144.984 79.9795C145.255 80.2338 145.39 80.5968 145.39 81.0686V83.9375H144.407V81.2805C144.407 80.9782 144.328 80.755 144.17 80.6109C144.015 80.464 143.814 80.3906 143.568 80.3906C143.274 80.3906 143.034 80.481 142.848 80.6618C142.661 80.8397 142.567 81.1152 142.564 81.4881V83.9375H141.589V79.6744H142.564V80.1787C142.708 79.9922 142.89 79.8481 143.111 79.7464C143.334 79.6447 143.582 79.5939 143.856 79.5939ZM152.353 83.9375L150.785 81.2423H150.132V83.9375H149.12V77.8946H151.217C151.536 77.8946 151.818 77.9398 152.061 78.0302C152.306 78.1206 152.504 78.2477 152.654 78.4116C152.804 78.5726 152.915 78.7576 152.989 78.9667C153.065 79.1729 153.103 79.4003 153.103 79.649C153.103 80.0671 152.987 80.4132 152.756 80.6872C152.524 80.9584 152.206 81.1307 151.802 81.2042L153.544 83.9375H152.353ZM150.132 78.7506V80.4923H151.069C151.428 80.4923 151.693 80.416 151.866 80.2634C152.041 80.108 152.128 79.8962 152.128 79.6278C152.128 79.3594 152.041 79.1461 151.866 78.9879C151.69 78.8297 151.425 78.7506 151.069 78.7506H150.132ZM158.095 81.7339L158.082 81.9797H154.84C154.857 82.3865 154.982 82.6973 155.213 82.912C155.445 83.1267 155.732 83.234 156.074 83.234C156.311 83.234 156.521 83.1761 156.705 83.0603C156.891 82.9445 157.033 82.7792 157.129 82.5645L158.019 82.717C157.872 83.1267 157.626 83.4459 157.281 83.6748C156.937 83.9036 156.537 84.018 156.082 84.018C155.418 84.018 154.886 83.8217 154.484 83.429C154.083 83.0363 153.883 82.4953 153.883 81.8059C153.883 81.1194 154.083 80.5784 154.484 80.1829C154.886 79.7874 155.408 79.5896 156.052 79.5896C156.665 79.5896 157.158 79.7719 157.531 80.1363C157.904 80.4979 158.092 81.0304 158.095 81.7339ZM156.057 80.3143C155.749 80.3143 155.492 80.392 155.285 80.5473C155.082 80.6999 154.948 80.9344 154.883 81.2508H157.116C157.079 80.9429 156.966 80.7098 156.777 80.5516C156.588 80.3934 156.348 80.3143 156.057 80.3143ZM162.252 79.6744H163.184V86.0479H162.21V83.3018C162.08 83.5307 161.889 83.7101 161.638 83.84C161.389 83.97 161.114 84.035 160.811 84.035C160.241 84.035 159.76 83.833 159.371 83.429C158.983 83.0222 158.79 82.4826 158.79 81.8102C158.79 81.474 158.844 81.1661 158.951 80.8864C159.058 80.6039 159.204 80.3694 159.387 80.1829C159.571 79.9964 159.784 79.8524 160.027 79.7507C160.273 79.6461 160.534 79.5939 160.811 79.5939C161.122 79.5939 161.403 79.6617 161.655 79.7973C161.909 79.9329 162.1 80.1193 162.227 80.3567L162.252 79.6744ZM161.019 83.2086C161.381 83.2086 161.681 83.0772 161.922 82.8145C162.165 82.5518 162.286 82.217 162.286 81.8102C162.286 81.4062 162.165 81.0742 161.922 80.8143C161.679 80.5516 161.378 80.4202 161.019 80.4202C160.663 80.4202 160.365 80.5459 160.125 80.7974C159.885 81.0488 159.765 81.3864 159.765 81.8102C159.765 82.2339 159.885 82.573 160.125 82.8272C160.365 83.0815 160.663 83.2086 161.019 83.2086ZM167.303 79.6744H168.278V83.9375H167.35L167.325 83.4036C167.025 83.8132 166.587 84.018 166.011 84.018C165.531 84.018 165.155 83.8909 164.884 83.6366C164.613 83.3795 164.477 83.0151 164.477 82.5433V79.6744H165.46V82.3314C165.46 82.6337 165.538 82.8583 165.693 83.0052C165.851 83.1493 166.055 83.2213 166.303 83.2213C166.597 83.2213 166.836 83.1323 167.02 82.9544C167.206 82.7735 167.301 82.4967 167.303 82.1238V79.6744ZM170.16 78.8607C169.996 78.8607 169.855 78.8028 169.736 78.687C169.617 78.5683 169.558 78.4271 169.558 78.2632C169.558 78.0994 169.616 77.9595 169.732 77.8437C169.85 77.725 169.993 77.6657 170.16 77.6657C170.321 77.6657 170.461 77.725 170.579 77.8437C170.698 77.9595 170.757 78.0994 170.757 78.2632C170.757 78.4271 170.698 78.5683 170.579 78.687C170.461 78.8028 170.321 78.8607 170.16 78.8607ZM169.66 83.9375V79.6744H170.639V83.9375H169.66ZM172.965 80.3906C173.072 80.173 173.252 79.9922 173.503 79.8481C173.757 79.704 174.036 79.6306 174.338 79.6278V80.5177C173.886 80.5177 173.55 80.6137 173.329 80.8058C173.112 80.9951 173.003 81.3144 173.003 81.7636V83.9375H172.024V79.6744H172.965V80.3906ZM178.953 81.7339L178.94 81.9797H175.698C175.715 82.3865 175.84 82.6973 176.071 82.912C176.303 83.1267 176.59 83.234 176.932 83.234C177.169 83.234 177.379 83.1761 177.563 83.0603C177.749 82.9445 177.891 82.7792 177.987 82.5645L178.877 82.717C178.73 83.1267 178.484 83.4459 178.139 83.6748C177.795 83.9036 177.395 84.018 176.94 84.018C176.276 84.018 175.744 83.8217 175.342 83.429C174.941 83.0363 174.741 82.4953 174.741 81.8059C174.741 81.1194 174.941 80.5784 175.342 80.1829C175.744 79.7874 176.266 79.5896 176.91 79.5896C177.523 79.5896 178.016 79.7719 178.389 80.1363C178.762 80.4979 178.95 81.0304 178.953 81.7339ZM176.915 80.3143C176.607 80.3143 176.35 80.392 176.143 80.5473C175.94 80.6999 175.806 80.9344 175.741 81.2508H177.974C177.937 80.9429 177.824 80.7098 177.635 80.5516C177.446 80.3934 177.206 80.3143 176.915 80.3143ZM183.072 77.4284H184.047V83.9375H183.114L183.089 83.2595C182.962 83.4996 182.771 83.6889 182.517 83.8273C182.265 83.9658 181.983 84.035 181.669 84.035C181.392 84.035 181.131 83.9827 180.885 83.8782C180.642 83.7736 180.429 83.6281 180.245 83.4417C180.062 83.2524 179.916 83.0179 179.809 82.7382C179.702 82.4557 179.648 82.1464 179.648 81.8102C179.648 81.4768 179.702 81.1703 179.809 80.8906C179.916 80.6109 180.062 80.3778 180.245 80.1914C180.429 80.0021 180.644 79.8552 180.89 79.7507C181.135 79.6461 181.395 79.5939 181.669 79.5939C181.974 79.5939 182.251 79.6603 182.5 79.793C182.751 79.923 182.942 80.1024 183.072 80.3312V77.4284ZM180.983 82.823C181.226 83.0801 181.527 83.2086 181.885 83.2086C182.244 83.2086 182.544 83.0772 182.784 82.8145C183.024 82.5518 183.144 82.217 183.144 81.8102C183.144 81.4062 183.022 81.0728 182.78 80.8101C182.539 80.5473 182.241 80.416 181.885 80.416C181.527 80.416 181.226 80.5445 180.983 80.8016C180.743 81.0559 180.623 81.3921 180.623 81.8102C180.623 82.2283 180.743 82.5659 180.983 82.823Z" fill="#D3D2D2"/>
<path d="M83.1032 74.8555C81.0702 74.8555 79.0829 75.4583 77.3925 76.5878C75.7021 77.7172 74.3847 79.3226 73.6067 81.2008C72.8287 83.0791 72.6251 85.1458 73.0217 87.1397C73.4183 89.1336 74.3973 90.9652 75.8349 92.4027C77.2724 93.8403 79.1039 94.8192 81.0978 95.2158C83.0918 95.6125 85.1585 95.4089 87.0367 94.6309C88.915 93.8529 90.5203 92.5354 91.6498 90.8451C92.7792 89.1547 93.3821 87.1674 93.3821 85.1344C93.3821 82.4083 92.2992 79.7938 90.3715 77.8661C88.4438 75.9384 85.8293 74.8555 83.1032 74.8555ZM83.1032 77.9391C83.7131 77.9391 84.3093 78.12 84.8164 78.4588C85.3235 78.7977 85.7187 79.2793 85.9521 79.8428C86.1855 80.4062 86.2466 81.0262 86.1276 81.6244C86.0086 82.2226 85.7149 82.7721 85.2837 83.2033C84.8524 83.6346 84.3029 83.9283 83.7048 84.0473C83.1066 84.1662 82.4866 84.1052 81.9231 83.8718C81.3596 83.6384 80.878 83.2431 80.5392 82.736C80.2003 82.2289 80.0195 81.6327 80.0195 81.0228C80.0195 80.205 80.3444 79.4206 80.9227 78.8423C81.501 78.264 82.2853 77.9391 83.1032 77.9391V77.9391ZM83.1032 92.7845C81.885 92.7789 80.6865 92.4762 79.6118 91.9027C78.5371 91.3291 77.6185 90.502 76.9358 89.4931C76.985 87.4373 81.0474 86.3058 83.1032 86.3058C85.159 86.3058 89.2213 87.4373 89.2705 89.4931C88.587 90.5012 87.6683 91.3278 86.5937 91.9012C85.5192 92.4747 84.3211 92.7779 83.1032 92.7845V92.7845Z" fill="#E6E6E6"/>
</svg>
